<svg width="24" height="24" viewBox="0 0 25 25" fill="none" xmlns="http://www.w3.org/2000/svg">
<g id="description_24px">
<g id="Group">
<path id="Vector" fill-rule="evenodd" clip-rule="evenodd" d="M16.8213 3.90367V6.68318L18.603 4.91927V1.64087L17.7121 0.75H1.6765L0.785635 1.64087V2.50679L0.75 2.53174V20.8658L1.39143 21.6854L10.3001 24.75L11.4404 23.9126V22.1308H17.7121L18.603 21.24V18.015L16.8213 16.2333V20.3491H11.4404V5.57851L10.8525 4.75891L4.37762 2.53174H16.8213V3.90367ZM9.65869 22.6297L2.53174 20.2422V3.81459L9.65869 6.20212V22.6297V22.6297ZM21.2756 12.2957H12.4204V10.5139H21.2043L18.3536 7.66314L19.6186 6.41592L24.0195 10.799V12.064L19.583 16.4827L18.3357 15.2355L21.2756 12.2957V12.2957Z" fill="#1EA0BD"/>
</g>
</g>
</svg>
